<?xml version="1.0" standalone="no"?>
<!DOCTYPE svg PUBLIC "-//W3C//DTD SVG 20010904//EN"
 "http://www.w3.org/TR/2001/REC-SVG-20010904/DTD/svg10.dtd">
<svg version="1.0" xmlns="http://www.w3.org/2000/svg"
 width="1287.000000pt" height="631.000000pt" viewBox="0 0 1287.000000 631.000000"
 preserveAspectRatio="xMidYMid meet">
<metadata>
Created by potrace 1.13, written by Peter Selinger 2001-2015
</metadata>
<g transform="translate(0.000000,631.000000) scale(0.100000,-0.100000)"
fill="#000000" stroke="none">
<path d="M2723 5645 c-70 -71 -103 -112 -103 -127 0 -13 -10 -29 -21 -36 -17
-11 -20 -20 -16 -48 5 -27 1 -40 -14 -55 -17 -17 -19 -34 -19 -157 0 -128 1
-138 21 -150 11 -7 19 -21 17 -31 -2 -11 4 -27 14 -37 9 -11 18 -30 20 -44 2
-19 10 -26 31 -28 15 -2 33 -12 40 -23 17 -27 96 -27 120 1 9 11 26 20 37 20
28 0 150 123 150 152 0 13 9 29 20 36 11 7 20 23 20 36 0 14 5 28 10 31 6 3
10 18 10 32 0 13 9 36 20 50 26 33 29 165 5 189 -8 9 -15 25 -15 37 0 12 -9
28 -20 35 -15 9 -20 23 -20 53 0 35 -6 47 -45 85 -24 24 -51 44 -60 44 -9 0
-28 9 -42 20 -14 11 -33 20 -42 19 -9 0 -62 -47 -118 -104z"/>
<path d="M2191 5637 c-14 -18 -40 -44 -58 -58 -22 -17 -33 -32 -33 -51 0 -17
-8 -31 -20 -38 -19 -10 -20 -21 -20 -150 0 -129 2 -141 20 -152 15 -10 20 -24
20 -54 0 -35 6 -48 44 -88 28 -29 53 -46 68 -46 13 0 29 -9 36 -21 13 -20 17
-17 102 67 l88 89 -5 51 c-5 44 -3 55 16 70 30 26 30 104 0 123 -19 11 -21 19
-15 72 5 52 3 61 -14 71 -23 14 -26 34 -7 41 15 5 -40 67 -61 67 -8 0 -25 9
-39 20 -15 12 -40 20 -62 20 -29 0 -41 -7 -60 -33z"/>
<path d="M1673 5455 c-40 -41 -63 -73 -63 -87 0 -13 -9 -29 -20 -36 -18 -11
-20 -23 -20 -106 0 -80 3 -95 20 -111 14 -12 20 -31 20 -57 0 -34 7 -46 45
-84 25 -24 55 -44 65 -44 11 0 28 -9 37 -20 12 -14 30 -20 60 -20 37 0 47 5
87 48 25 26 46 56 46 67 0 11 10 29 21 39 19 16 21 25 16 72 -5 47 -3 56 14
67 26 16 26 68 -1 85 -17 10 -19 19 -14 51 5 33 3 42 -15 53 -12 7 -21 23 -21
36 0 15 -17 40 -45 68 -44 43 -48 44 -108 44 l-62 -1 -62 -64z"/>
<path d="M3745 5470 c-5 -15 -15 -20 -41 -20 -19 0 -34 -4 -34 -8 0 -5 -25
-35 -55 -67 -30 -31 -55 -65 -55 -75 0 -9 -9 -27 -20 -40 -19 -22 -20 -37 -20
-251 0 -219 1 -228 20 -234 17 -5 20 -15 20 -70 0 -54 -3 -66 -20 -75 -13 -7
-20 -21 -20 -41 0 -22 -5 -32 -20 -36 -14 -4 -20 -14 -20 -36 0 -22 -11 -40
-41 -69 -22 -21 -37 -43 -34 -49 4 -5 -19 -36 -52 -68 -32 -33 -103 -104 -158
-160 -55 -55 -107 -101 -117 -101 -20 0 -118 -98 -118 -118 0 -8 -9 -25 -20
-39 -11 -15 -20 -41 -20 -61 0 -20 -8 -44 -17 -55 -17 -18 -17 -19 0 -28 23
-14 21 -36 -4 -44 -19 -6 -21 -13 -16 -53 3 -27 11 -49 21 -54 9 -5 16 -20 16
-33 0 -29 43 -75 71 -75 10 0 27 -9 36 -20 10 -11 30 -20 45 -20 17 0 31 -7
38 -20 10 -19 21 -20 243 -20 221 0 233 1 245 20 9 15 23 20 55 20 31 0 47 6
60 21 10 12 25 18 33 15 20 -8 114 86 114 114 0 11 16 35 35 53 20 18 35 41
35 54 0 13 9 28 20 35 12 8 20 24 20 40 0 15 6 31 13 35 6 4 20 22 30 40 14
25 17 56 17 166 l0 135 -30 30 c-32 33 -39 69 -15 78 9 4 15 19 15 39 0 18 7
38 15 45 17 14 22 135 5 145 -14 9 -13 62 2 71 6 4 17 -1 23 -10 12 -15 13
-15 19 0 3 8 6 36 6 62 0 28 6 52 16 63 10 11 19 46 23 83 4 35 12 70 19 78 6
8 13 40 16 72 3 33 12 66 20 75 11 12 16 38 16 87 0 52 5 76 20 99 19 29 19
29 0 61 -11 17 -20 43 -20 56 0 22 -58 98 -74 98 -9 0 -66 62 -66 71 0 5 -65
9 -144 9 -136 0 -145 -1 -151 -20z"/>
<path d="M1342 5239 c-8 -13 -19 -18 -29 -15 -21 9 -43 -12 -43 -40 0 -13 -8
-27 -17 -32 -14 -8 -16 -25 -14 -113 2 -78 6 -106 17 -112 8 -4 14 -19 14 -33
0 -13 9 -32 20 -41 11 -10 20 -30 20 -45 0 -17 6 -29 19 -33 11 -3 22 -12 25
-20 4 -11 22 -15 66 -15 55 0 65 3 92 30 18 18 28 37 24 45 -3 9 3 23 14 32
17 15 20 30 20 98 0 67 -3 83 -19 97 -15 13 -19 25 -15 50 5 30 0 39 -44 86
-35 37 -57 52 -76 52 -16 0 -26 5 -26 15 0 22 -33 18 -48 -6z"/>
<path d="M2172 4870 c-10 -17 -23 -20 -77 -20 -54 0 -66 -3 -75 -20 -9 -17
-21 -20 -76 -20 -48 0 -66 -4 -70 -15 -4 -10 -20 -15 -50 -15 -32 0 -49 -6
-61 -20 -14 -16 -30 -20 -80 -20 -52 0 -64 -3 -73 -20 -7 -12 -21 -20 -38 -20
-16 0 -32 -8 -40 -20 -7 -11 -22 -20 -34 -20 -32 0 -258 -226 -258 -257 0 -13
-9 -28 -20 -35 -15 -10 -20 -24 -20 -60 0 -37 -4 -50 -20 -58 -11 -6 -20 -21
-20 -34 0 -13 -9 -31 -20 -41 -14 -13 -20 -31 -20 -60 0 -29 -5 -45 -15 -49
-12 -4 -15 -32 -15 -164 0 -154 -1 -160 -23 -176 l-22 -16 23 -16 c20 -15 22
-25 22 -95 0 -68 -3 -81 -20 -91 -16 -10 -20 -24 -20 -65 0 -29 4 -53 10 -53
5 0 22 -12 37 -27 24 -25 27 -34 25 -85 -3 -49 0 -59 17 -70 18 -11 21 -23 21
-80 0 -59 2 -67 21 -73 19 -6 21 -14 19 -78 -4 -125 -1 -147 15 -147 16 0 16
-1 20 -36 1 -12 11 -30 21 -40 15 -15 18 -31 16 -81 -3 -46 -8 -63 -18 -63
-10 0 -14 -12 -14 -40 0 -29 4 -40 15 -40 12 0 15 -13 15 -55 0 -42 -3 -55
-15 -55 -21 0 -21 -68 0 -76 22 -9 23 -552 0 -560 -30 -12 -29 -74 1 -74 8 0
14 -9 14 -20 0 -11 -6 -20 -14 -20 -17 0 -27 -25 -19 -46 4 -10 -1 -17 -16
-21 -27 -7 -27 -34 -1 -51 18 -11 20 -23 20 -107 0 -84 -2 -96 -20 -107 -24
-15 -28 -89 -6 -107 17 -15 17 -107 -1 -141 -10 -20 -10 -28 2 -46 7 -12 14
-37 14 -55 0 -80 13 -124 46 -159 18 -19 36 -46 40 -59 10 -33 62 -82 79 -75
9 3 20 -3 28 -15 8 -13 23 -21 40 -21 17 0 31 -8 38 -20 7 -13 21 -20 39 -20
16 0 31 -7 35 -15 8 -22 291 -22 300 0 3 8 17 15 31 15 14 0 30 9 37 20 7 11
24 20 37 20 18 0 54 30 137 115 62 63 119 115 125 115 7 0 10 3 6 6 -5 5 31
82 52 108 4 6 11 30 14 54 3 24 12 51 21 61 10 11 16 36 16 68 0 35 6 58 20
76 24 31 25 54 3 79 -12 14 -19 44 -23 106 -3 60 -10 95 -22 112 -10 13 -18
39 -18 56 0 17 -6 37 -14 43 -8 7 -18 25 -21 41 -3 16 -13 34 -21 41 -9 7 -14
30 -14 63 0 34 -7 61 -20 81 -16 25 -20 47 -20 128 0 74 -4 102 -15 113 -9 9
-15 33 -15 57 0 31 -5 45 -20 55 -20 12 -20 21 -17 259 3 216 6 247 20 258 9
7 17 24 17 38 0 16 8 31 20 37 17 9 20 21 20 75 0 54 3 66 20 75 12 6 20 21
20 36 0 16 13 38 35 58 23 22 35 43 35 59 0 16 8 31 20 37 11 6 20 21 20 34 0
14 15 37 39 59 28 26 38 42 34 56 -3 13 2 24 16 33 12 7 21 23 21 38 0 17 14
37 40 60 24 21 40 44 40 58 0 13 14 35 35 53 22 19 35 40 35 55 0 13 9 29 20
36 11 7 20 24 20 37 0 23 52 81 73 81 5 0 6 13 2 29 -5 24 -2 32 14 41 13 6
21 21 21 35 0 14 8 29 20 35 17 9 20 21 20 80 0 58 3 70 18 74 33 11 56 89 54
183 -1 25 5 46 14 53 16 14 19 51 4 66 -6 6 -12 39 -13 73 -1 49 -5 65 -19 72
-13 7 -18 22 -18 54 0 34 -5 48 -20 57 -12 8 -20 24 -20 40 0 17 -8 31 -20 38
-12 6 -20 21 -20 36 0 35 -38 74 -72 74 -17 0 -31 8 -38 20 -7 13 -21 20 -40
20 -20 0 -31 6 -35 20 -6 19 -15 20 -203 20 -186 0 -198 -1 -210 -20z"/>
<path d="M1050 4842 c0 -5 -27 -36 -60 -69 -40 -40 -58 -66 -54 -76 3 -10 -2
-21 -15 -29 -26 -16 -27 -38 -1 -71 11 -14 20 -40 20 -59 0 -49 12 -62 63 -67
4 -1 7 -8 7 -16 0 -12 16 -15 86 -15 81 0 87 1 115 30 24 23 29 37 27 66 -1
24 3 40 13 48 28 20 32 53 10 73 -12 10 -21 27 -21 39 0 29 -86 114 -116 114
-13 0 -28 9 -34 20 -10 19 -40 28 -40 12z"/>
<path d="M5452 3538 c-23 -14 -56 -21 -125 -25 -89 -5 -95 -5 -115 18 -21 21
-26 22 -65 12 -24 -6 -86 -9 -147 -6 -100 4 -107 3 -143 -21 -21 -14 -41 -26
-46 -26 -4 0 -18 -11 -31 -25 -13 -14 -29 -25 -36 -25 -21 0 -37 -29 -30 -55
3 -13 19 -31 35 -39 25 -13 31 -13 49 0 14 10 37 13 69 10 26 -2 64 -5 85 -5
35 -1 36 -2 49 -53 7 -29 12 -75 10 -101 -2 -39 3 -55 23 -81 32 -42 42 -82
26 -101 -10 -13 -10 -19 5 -35 13 -15 15 -28 10 -62 -4 -24 -10 -74 -12 -113
-6 -111 -7 -121 -19 -136 -7 -8 -10 -31 -9 -52 2 -21 -3 -54 -11 -72 -8 -19
-14 -45 -14 -59 0 -13 -5 -26 -11 -28 -6 -2 -12 -21 -13 -43 -1 -22 -12 -60
-23 -85 -11 -25 -24 -61 -27 -80 -14 -71 -85 -232 -150 -336 -17 -29 -55 -77
-83 -107 -28 -31 -53 -60 -54 -64 -2 -4 -24 -23 -49 -42 -25 -19 -54 -43 -65
-54 -30 -28 -225 -155 -328 -214 -12 -7 -25 -23 -28 -37 -6 -20 -2 -28 18 -41
33 -22 62 -13 109 33 34 33 156 122 168 122 3 0 20 14 38 31 18 17 48 38 67
46 18 8 35 22 38 31 2 9 28 31 56 47 29 17 56 40 61 51 5 11 22 28 37 36 23
13 79 90 161 217 9 15 14 36 11 49 -4 16 2 31 20 50 16 17 39 68 62 137 20 61
42 121 49 135 8 14 22 53 31 88 10 34 22 62 26 62 5 0 9 11 9 24 0 14 5 28 10
31 6 4 7 11 4 17 -4 6 -2 13 3 17 6 3 23 76 38 161 15 85 32 182 38 215 6 33
11 135 11 228 1 178 -1 173 51 169 11 -1 51 14 89 33 39 19 76 35 83 35 8 0
16 7 20 16 3 9 17 27 29 40 31 31 30 50 -4 68 -26 13 -31 13 -60 -6z"/>
<path d="M3820 3524 c0 -9 -9 -18 -20 -21 -17 -5 -20 -14 -20 -67 0 -55 3 -64
29 -89 39 -36 99 -38 133 -4 49 49 11 176 -48 161 -16 -4 -25 0 -34 15 -13 25
-40 28 -40 5z"/>
<path d="M2771 3478 c-17 -18 -31 -38 -31 -44 0 -6 -9 -23 -20 -37 -11 -14
-20 -33 -20 -42 0 -9 -9 -29 -21 -43 l-20 -26 20 -8 c18 -6 21 -16 21 -73 0
-65 1 -67 42 -106 45 -42 63 -48 72 -24 3 9 18 15 36 15 17 0 30 5 30 13 0 6
18 28 40 47 22 20 40 44 40 56 0 11 8 29 19 38 16 14 19 33 20 111 1 85 0 96
-19 107 -11 7 -20 18 -20 25 0 9 -16 13 -49 13 -27 0 -62 3 -78 6 -25 5 -35 0
-62 -28z"/>
<path d="M3081 3346 c-42 -42 -43 -45 -47 -122 -3 -44 -7 -84 -9 -90 -2 -6 14
-29 36 -50 54 -52 85 -49 150 16 l49 49 0 92 c0 87 -2 95 -27 121 -21 22 -36
28 -68 28 -35 0 -47 -6 -84 -44z"/>
<path d="M3343 3346 l-43 -44 0 -106 c0 -83 3 -106 14 -106 7 0 19 -7 26 -15
9 -10 32 -15 77 -15 47 0 65 4 69 15 4 8 12 15 20 15 10 0 14 15 14 55 0 51 2
55 26 61 23 6 33 0 64 -35 24 -27 45 -41 62 -41 31 0 66 24 50 34 -19 11 -14
34 8 41 17 5 20 15 20 68 0 56 -3 65 -29 90 -57 53 -154 24 -163 -50 -5 -41
-32 -36 -38 7 -4 31 -9 35 -33 35 -16 0 -34 8 -41 18 -22 29 -58 20 -103 -27z"/>
<path d="M11430 3234 c-30 -13 -69 -24 -86 -24 -22 0 -34 -7 -43 -24 -7 -13
-30 -34 -52 -47 -21 -13 -39 -27 -39 -31 0 -5 -6 -8 -14 -8 -22 0 -77 -60 -98
-108 -17 -37 -18 -50 -8 -97 6 -30 15 -55 20 -55 5 0 16 -19 25 -42 20 -54 38
-75 97 -117 40 -29 51 -44 74 -107 19 -52 25 -83 20 -107 -9 -48 -121 -160
-191 -192 -29 -14 -56 -25 -58 -25 -12 0 -74 -71 -66 -76 5 -3 9 -13 9 -22 0
-9 5 -24 10 -32 8 -12 12 -11 32 7 13 12 49 28 81 36 32 9 67 21 77 29 41 30
166 132 175 143 6 6 15 14 21 16 19 7 81 83 101 124 38 76 37 96 -13 190 -25
47 -50 85 -55 85 -5 0 -9 10 -9 23 0 29 -18 47 -46 47 -15 0 -25 8 -30 23 -4
12 -22 44 -40 72 -62 91 -46 120 105 195 120 59 137 79 104 125 -22 30 -32 29
-103 -1z"/>
<path d="M10115 3172 c-57 -31 -235 -160 -235 -172 0 -4 -15 -13 -32 -21 -18
-7 -47 -29 -64 -48 -31 -35 -31 -37 -16 -63 9 -16 20 -28 25 -28 20 0 96 56
106 78 12 24 33 29 49 10 12 -16 5 -197 -8 -213 -6 -7 -10 -28 -10 -46 1 -58
-4 -87 -17 -101 -9 -8 -13 -56 -13 -165 l0 -153 28 -12 c15 -6 32 -10 37 -8 6
1 20 4 31 5 25 3 75 34 87 52 4 7 14 13 21 13 7 0 24 9 37 21 13 12 31 26 39
33 8 6 29 27 45 46 17 19 62 64 100 100 39 36 75 72 80 80 6 9 19 29 29 45 19
29 108 105 123 105 18 0 42 -129 43 -226 1 -79 -2 -104 -14 -113 -10 -9 -15
-28 -14 -55 1 -22 -4 -54 -10 -69 -7 -16 -12 -38 -12 -50 0 -12 -9 -46 -20
-75 -11 -29 -20 -62 -20 -75 0 -12 -9 -37 -21 -56 -35 -57 -109 -269 -123
-352 -4 -20 -29 -81 -56 -135 -27 -54 -50 -107 -50 -117 0 -11 -8 -31 -19 -45
-10 -15 -25 -45 -32 -67 -8 -22 -20 -46 -27 -55 -8 -8 -29 -39 -48 -68 -33
-52 -33 -54 -16 -77 9 -14 26 -25 38 -25 26 0 61 36 70 75 3 17 14 39 24 50
10 11 26 43 36 70 10 28 28 66 41 85 13 19 23 39 23 44 0 5 11 32 25 60 50
103 77 182 80 229 2 27 10 56 18 65 8 10 17 31 20 49 5 28 25 77 59 150 6 11
8 27 5 35 -2 7 1 24 8 38 14 29 27 60 46 110 7 19 16 37 20 40 5 3 10 28 12
55 5 55 14 83 33 103 21 20 42 113 41 175 -1 32 3 61 9 65 6 4 18 37 28 73 10
36 26 80 36 96 10 17 16 41 13 55 -3 15 2 29 11 37 11 9 16 31 16 70 0 38 6
66 20 89 24 39 24 42 5 42 -18 0 -18 2 -1 45 11 26 12 37 2 50 -10 14 -14 13
-34 -10 -19 -22 -27 -24 -61 -19 -33 5 -47 1 -85 -22 -52 -34 -64 -55 -73
-131 -7 -61 2 -50 -172 -218 -46 -44 -87 -88 -92 -97 -5 -10 -14 -18 -20 -18
-13 0 -105 -76 -137 -112 -13 -16 -27 -28 -32 -28 -16 0 -22 57 -20 190 0 93
5 141 14 155 7 11 16 38 19 60 24 159 41 242 53 256 18 20 18 34 -2 53 -21 21
-40 19 -99 -12z"/>
<path d="M6007 3183 c-4 -4 -20 -9 -34 -11 -14 -2 -45 -16 -68 -32 -23 -16
-55 -32 -70 -36 -16 -4 -40 -13 -54 -20 -14 -7 -35 -11 -47 -8 -16 4 -26 0
-34 -15 -6 -13 -21 -21 -36 -21 -34 0 -73 -21 -111 -62 -29 -30 -30 -35 -17
-52 13 -19 16 -19 66 -3 34 11 56 13 62 7 16 -16 29 -12 58 15 15 14 32 25 37
25 16 0 30 -34 21 -51 -5 -8 -11 -33 -14 -55 -3 -21 -12 -75 -20 -118 -8 -43
-12 -85 -9 -93 3 -7 -10 -46 -30 -86 -50 -103 -59 -143 -51 -238 6 -70 11 -85
36 -112 15 -17 28 -36 28 -42 0 -15 38 -36 45 -25 3 6 17 10 30 10 34 0 55 10
55 26 0 7 14 21 32 30 44 23 168 149 268 274 46 58 112 135 147 173 35 37 63
71 63 76 0 5 9 7 20 4 11 -3 20 -14 20 -24 0 -10 9 -24 19 -31 14 -10 18 -21
14 -41 -3 -15 -10 -27 -16 -27 -5 0 -3 -8 6 -18 13 -14 16 -38 7 -62 -1 -3 -1
-9 0 -15 1 -5 -2 -40 -5 -78 -5 -50 -13 -73 -28 -88 -11 -10 -18 -22 -14 -25
3 -4 2 -14 -2 -23 -15 -27 13 -81 42 -81 14 0 30 6 36 14 7 8 27 17 45 20 19
4 37 13 40 21 3 8 11 15 18 15 8 0 21 8 29 18 9 9 33 32 53 50 42 35 43 62 3
62 -44 0 -48 18 -46 177 2 144 20 285 39 308 5 6 11 28 13 48 2 21 12 46 22
57 15 17 16 24 6 46 -10 22 -16 25 -39 19 -15 -3 -37 -7 -49 -7 -12 0 -33 -10
-46 -22 -13 -11 -33 -26 -43 -32 -10 -6 -36 -36 -57 -67 -21 -32 -45 -57 -52
-57 -16 0 -75 -69 -75 -87 0 -7 -4 -13 -8 -13 -14 0 -152 -136 -152 -149 0
-13 -24 -41 -35 -41 -9 0 -75 -66 -75 -75 0 -13 -104 -115 -131 -129 l-26 -13
-8 96 c-12 166 -13 255 -2 281 5 14 12 33 14 43 2 10 10 25 18 33 8 9 15 22
15 31 0 9 10 31 21 50 13 20 22 53 23 79 1 32 6 48 19 55 9 6 26 27 36 47 18
36 18 39 2 60 -9 13 -20 20 -24 15z"/>
<path d="M7231 3176 c-7 -8 -29 -20 -49 -27 -59 -19 -86 -44 -116 -106 -26
-52 -107 -144 -124 -140 -4 1 -8 -8 -10 -20 -3 -18 2 -22 29 -25 49 -5 67 -44
62 -138 -3 -41 -8 -84 -12 -95 -17 -41 -31 -138 -22 -149 20 -24 -6 -157 -39
-199 -11 -14 -20 -32 -20 -40 0 -9 -6 -22 -13 -29 -37 -37 -26 -95 20 -100 16
-2 28 -9 29 -18 0 -22 33 -80 44 -80 13 0 50 37 50 50 0 5 20 32 45 60 49 55
59 86 25 77 -18 -5 -19 -2 -14 34 12 71 29 107 77 159 25 28 47 55 49 59 11
27 102 142 144 183 28 27 61 70 73 96 15 32 36 56 64 74 48 31 57 25 57 -38 0
-26 7 -51 20 -67 l21 -26 -20 -62 c-12 -33 -23 -84 -27 -113 -6 -49 -22 -86
-51 -114 -7 -7 -13 -22 -13 -33 0 -27 1 -25 -15 -70 -20 -55 -19 -58 10 -69
14 -5 25 -14 25 -20 0 -17 29 -11 50 10 11 11 32 20 46 20 48 0 104 82 104
153 0 10 11 35 25 55 14 20 25 42 25 48 0 15 48 104 67 126 8 9 32 50 52 90
21 40 47 77 59 83 12 5 22 17 22 26 0 20 36 54 44 41 3 -5 8 -29 12 -53 4 -24
18 -66 31 -93 15 -28 23 -59 20 -73 -2 -14 0 -38 6 -53 8 -20 8 -35 0 -52 -12
-27 -6 -44 34 -92 16 -19 23 -37 19 -50 -4 -14 2 -27 17 -38 14 -12 18 -20 11
-25 -33 -23 -14 -83 21 -69 9 3 26 -1 38 -9 12 -8 42 -15 67 -17 43 -3 45 -2
63 37 11 22 66 86 123 143 104 102 115 122 94 163 -11 20 -40 26 -40 9 0 -6
-8 -14 -17 -17 -10 -4 -45 -36 -78 -72 -131 -143 -161 -162 -175 -111 -21 75
-31 131 -25 149 14 46 13 296 -2 356 -18 74 -33 105 -48 105 -7 0 -18 7 -25
15 -19 23 -64 18 -94 -10 -15 -14 -31 -25 -36 -25 -11 0 -201 -189 -249 -247
-19 -23 -34 -34 -40 -28 -15 16 -16 88 -2 122 9 22 10 37 3 49 -7 12 -6 25 1
41 12 28 -4 73 -27 73 -9 0 -23 8 -33 19 -10 10 -32 22 -49 25 -33 7 -40 2
-121 -88 -23 -25 -47 -46 -53 -46 -6 0 -16 -14 -22 -30 -5 -17 -18 -35 -28
-40 -10 -6 -29 -28 -41 -50 -12 -22 -30 -42 -40 -45 -9 -3 -25 -18 -34 -33
-10 -15 -29 -38 -42 -52 -13 -14 -52 -55 -85 -92 -33 -38 -64 -68 -69 -68 -22
0 5 190 34 249 9 19 17 51 17 71 0 26 7 43 25 60 14 13 25 31 25 39 0 9 7 29
15 45 8 15 15 34 15 41 0 7 7 26 15 41 8 16 15 39 15 52 0 13 6 22 15 22 8 0
15 7 15 15 0 9 14 22 31 29 l31 13 -42 6 c-23 3 -50 13 -59 21 -16 15 -20 15
-30 2z"/>
<path d="M8972 3070 c-49 -26 -66 -44 -92 -97 -22 -45 -55 -82 -72 -83 -18 0
-106 -72 -136 -109 -25 -31 -31 -46 -26 -66 9 -38 25 -41 50 -12 13 15 29 27
36 27 7 0 24 9 38 20 14 11 30 20 35 20 15 0 35 -124 35 -211 0 -39 4 -78 9
-87 15 -30 -23 -373 -46 -407 -7 -11 -13 -30 -13 -42 0 -12 -7 -40 -15 -60 -8
-21 -16 -55 -18 -75 -2 -20 -8 -43 -14 -50 -6 -7 -13 -33 -17 -58 -4 -24 -11
-49 -15 -55 -5 -5 -11 -32 -15 -60 -3 -29 -25 -88 -51 -140 -25 -49 -45 -98
-45 -108 0 -10 -8 -31 -19 -45 -10 -15 -24 -45 -32 -67 -7 -22 -19 -47 -27
-55 -19 -22 -82 -120 -82 -129 0 -16 38 -41 62 -41 28 0 50 27 62 75 4 17 16
39 25 50 10 11 26 43 36 70 10 28 29 64 42 82 12 17 23 38 23 45 0 7 8 29 19
48 25 48 91 214 91 231 0 8 14 52 31 99 17 47 35 108 40 135 5 28 15 70 22 95
11 39 17 45 42 48 16 2 45 16 65 32 19 15 55 31 80 35 25 4 58 18 73 31 16 13
33 24 39 24 6 0 28 16 49 35 22 19 47 35 58 35 10 0 54 36 98 81 83 82 94 102
128 224 9 33 21 75 27 93 5 19 11 84 12 145 1 69 7 121 15 136 17 32 6 99 -21
128 -41 44 -129 27 -229 -44 -26 -18 -50 -33 -55 -33 -13 0 -152 -110 -178
-141 -24 -28 -46 -38 -46 -21 0 5 10 40 23 78 27 82 28 129 3 167 -21 32 -54
34 -104 7z m374 -290 c1 -58 2 -112 3 -120 2 -15 0 -27 -17 -105 -24 -111 -85
-189 -192 -247 -30 -17 -60 -35 -67 -40 -7 -5 -23 -8 -35 -6 -14 1 -37 -7 -53
-20 -15 -12 -33 -21 -39 -19 -6 2 -12 30 -13 63 -2 48 1 62 16 74 18 14 36 86
46 179 2 24 13 43 33 60 16 15 48 53 70 86 47 71 80 103 145 140 26 15 52 36
58 47 6 10 18 18 27 16 15 -3 17 -18 18 -108z"/>
<path d="M4710 1186 c-42 -23 -75 -48 -75 -56 0 -14 5 -15 47 -3 15 4 17 0 14
-23 -5 -38 -25 -122 -37 -154 -5 -14 -11 -41 -13 -60 -2 -19 -7 -53 -11 -74
l-8 -39 29 7 c63 15 121 53 198 128 45 43 82 78 84 78 1 0 2 -26 2 -57 0 -75
16 -130 41 -144 22 -11 36 -4 75 41 24 27 23 40 -5 40 -14 0 -20 11 -25 48 -6
50 1 136 15 162 9 20 21 110 13 110 -11 0 -50 -23 -71 -43 -13 -11 -26 -36
-29 -54 -7 -39 -107 -150 -185 -209 -76 -56 -82 -47 -49 78 24 92 70 197 98
221 25 22 18 47 -12 46 -11 -1 -55 -20 -96 -43z"/>
<path d="M6814 1146 c-45 -20 -104 -75 -104 -98 0 -27 29 -79 56 -101 13 -10
26 -34 30 -53 5 -30 2 -40 -22 -65 -15 -16 -37 -32 -48 -35 -30 -10 -51 -33
-39 -45 33 -33 193 97 193 156 0 18 -37 81 -67 113 -36 39 -30 65 22 90 72 35
53 70 -21 38z"/>
<path d="M8695 1151 c-35 -11 -95 -53 -105 -71 -6 -10 -10 -27 -10 -38 0 -28
29 -81 50 -92 10 -5 24 -26 30 -45 15 -45 -3 -76 -61 -105 -36 -19 -58 -44
-47 -55 23 -23 182 92 194 141 6 23 -37 114 -55 114 -12 0 -40 66 -33 77 4 6
26 20 50 32 62 32 53 64 -13 42z"/>
<path d="M6423 1138 c-67 -12 -114 -57 -137 -130 -9 -29 -20 -60 -23 -68 -18
-43 -38 -139 -35 -167 3 -33 23 -43 47 -25 15 10 75 88 120 155 43 63 54 63
62 -4 6 -48 33 -108 56 -128 12 -10 20 -10 36 1 12 7 21 16 21 19 0 3 25 30
55 60 80 79 74 114 -7 39 -24 -22 -47 -40 -51 -40 -18 0 -40 80 -45 164 -4 75
-2 90 12 98 9 5 16 15 16 22 0 15 -57 17 -127 4z m6 -57 c29 -18 -3 -90 -88
-201 -20 -25 -37 -47 -38 -49 -2 -2 -6 -2 -9 2 -15 14 45 199 79 245 11 14 36
16 56 3z"/>
<path d="M8283 1137 c-59 -14 -106 -60 -127 -127 -10 -30 -21 -64 -26 -75 -40
-91 -46 -195 -11 -195 19 0 71 50 71 68 0 6 6 15 14 19 8 4 33 36 56 71 23 34
46 60 50 57 5 -3 12 -27 16 -53 7 -52 48 -142 65 -142 13 0 159 146 159 160 0
21 -27 9 -65 -30 -21 -22 -44 -40 -51 -40 -36 0 -63 251 -28 264 9 3 14 12 12
19 -6 15 -77 17 -135 4z m16 -56 c11 -7 11 -15 3 -39 -6 -17 -9 -32 -7 -34 2
-2 -25 -43 -61 -92 -36 -48 -68 -86 -70 -83 -16 16 50 218 82 250 10 10 36 9
53 -2z"/>
<path d="M7521 1119 c-17 -10 -31 -23 -31 -28 0 -6 -12 -22 -26 -38 -23 -25
-24 -28 -9 -39 14 -10 15 -25 9 -101 -4 -55 -14 -102 -26 -126 l-19 -39 26
-25 c25 -25 26 -26 40 -7 28 35 37 54 25 54 -22 0 4 46 77 138 41 50 78 92 83
92 23 0 17 -131 -7 -162 -17 -22 -22 -57 -9 -67 19 -16 65 9 73 39 10 38 66
141 97 178 l20 22 13 -37 c7 -21 13 -52 13 -69 0 -18 7 -45 15 -60 8 -16 15
-36 15 -45 0 -9 6 -16 13 -17 6 0 22 -4 35 -7 15 -5 22 -3 22 6 0 7 21 35 47
61 34 35 44 51 36 59 -8 8 -23 -2 -57 -37 -25 -26 -50 -44 -54 -40 -4 4 -9 57
-12 117 -5 111 -12 128 -48 129 -7 0 -40 -27 -74 -60 -34 -33 -64 -60 -66 -60
-2 0 -3 19 -2 43 3 62 2 63 -24 75 -23 10 -28 7 -68 -39 -24 -28 -67 -76 -95
-107 -48 -52 -53 -55 -53 -32 0 44 31 139 71 212 12 23 12 25 -5 31 -7 3 -27
-3 -45 -14z"/>
<path d="M5237 1090 c-23 -20 -52 -42 -64 -49 -13 -6 -23 -16 -23 -21 0 -16
22 -11 35 7 8 10 19 14 30 9 18 -7 18 -7 0 -126 -3 -19 -12 -56 -21 -82 -8
-26 -13 -52 -9 -58 10 -17 55 20 77 64 43 85 132 186 164 186 16 0 15 -44 -2
-117 -14 -60 -11 -105 8 -130 7 -9 20 -5 51 15 23 15 48 33 55 39 7 7 17 13
22 13 11 0 50 41 50 52 0 15 -27 8 -65 -17 -20 -15 -40 -24 -42 -21 -15 14
-13 103 2 171 9 42 14 79 11 82 -8 8 -51 -10 -87 -36 -19 -14 -67 -58 -106
-98 -40 -40 -73 -71 -73 -69 0 22 25 115 36 131 7 11 15 36 19 56 9 48 -12 48
-68 -1z"/>
<path d="M7095 1116 c-63 -20 -88 -41 -117 -98 -26 -51 -41 -158 -25 -175 4
-3 7 -21 7 -38 0 -45 19 -59 52 -37 58 39 167 154 168 178 0 5 12 32 25 59 36
73 30 138 -10 105 -12 -10 -16 -9 -21 4 -7 19 -24 19 -79 2z m43 -88 c0 -18
-4 -48 -10 -67 -13 -42 -68 -121 -84 -121 -14 0 -24 38 -28 107 -3 43 1 52 30
81 22 22 41 32 62 32 28 0 31 -3 30 -32z"/>
<path d="M5913 1080 c-17 -19 -34 -37 -84 -82 -10 -10 -19 -25 -19 -34 0 -14
2 -14 22 0 30 21 35 20 42 -10 15 -57 7 -172 -19 -279 -28 -117 -37 -141 -91
-248 -29 -57 -32 -69 -19 -74 20 -7 15 -14 62 87 37 78 73 177 87 240 5 23 53
60 78 60 6 0 26 11 44 25 18 14 35 25 38 25 4 0 19 12 35 26 34 30 58 108 63
203 5 101 -29 105 -147 15 l-41 -31 0 46 c1 53 -21 66 -51 31z m144 -195 c-15
-42 -69 -88 -120 -100 -23 -6 -27 -4 -27 13 0 12 4 23 9 26 4 3 11 23 15 43 7
44 51 106 98 138 l33 23 3 -52 c1 -28 -3 -69 -11 -91z"/>
</g>
</svg>
